HIERARCHY
ROOT reference
{
  OFFSET 0 0 0
  CHANNELS 6 Xposition Yposition Zposition Zrotation Xrotation Yrotation
  JOINT Hips
  {
    OFFSET 11.4907 92.2339 141.071
    CHANNELS 6 Xposition Yposition Zposition Zrotation Xrotation Yrotation
    JOINT Spine
    {
      OFFSET 0 7.86299 0
      CHANNELS 6 Xposition Yposition Zposition Zrotation Xrotation Yrotation
      JOINT Spine1
      {
        OFFSET 0 22.6654 0
        CHANNELS 6 Xposition Yposition Zposition Zrotation Xrotation Yrotation
        JOINT Neck
        {
          OFFSET 0 22.5723 2.05203
          CHANNELS 6 Xposition Yposition Zposition Zrotation Xrotation Yrotation
          JOINT Head
          {
            OFFSET 0 13.4246 -1.9178
            CHANNELS 6 Xposition Yposition Zposition Zrotation Xrotation Yrotation
            End Site
            {
              OFFSET 0 23.9725 0
            }
          }
        }
        JOINT LeftShoulder
        {
          OFFSET 3.7941 20.1358 -0.319195
          CHANNELS 6 Xposition Yposition Zposition Zrotation Xrotation Yrotation
          JOINT LeftArm
          {
            OFFSET 12.7665 0 0
            CHANNELS 6 Xposition Yposition Zposition Zrotation Xrotation Yrotation
            JOINT LeftForeArm
            {
              OFFSET 28.396 0 0
              CHANNELS 6 Xposition Yposition Zposition Zrotation Xrotation Yrotation
              JOINT LeftHand
              {
                OFFSET 28.7929 0 0
                CHANNELS 6 Xposition Yposition Zposition Zrotation Xrotation Yrotation
                End Site
                {
                  OFFSET 14.3835 0 0
                }
              }
            }
          }
        }
        JOINT RightShoulder
        {
          OFFSET -3.85764 20.1358 -0.319195
          CHANNELS 6 Xposition Yposition Zposition Zrotation Xrotation Yrotation
          JOINT RightArm
          {
            OFFSET -12.7665 0 0
            CHANNELS 6 Xposition Yposition Zposition Zrotation Xrotation Yrotation
            JOINT RightForeArm
            {
              OFFSET -28.396 0 0
              CHANNELS 6 Xposition Yposition Zposition Zrotation Xrotation Yrotation
              JOINT RightHand
              {
                OFFSET -28.7929 0 0
                CHANNELS 6 Xposition Yposition Zposition Zrotation Xrotation Yrotation
                End Site
                {
                  OFFSET -14.3835 0 0
                }
              }
            }
          }
        }
      }
    }
    JOINT LeftUpLeg
    {
      OFFSET 9.58901 0 0
      CHANNELS 6 Xposition Yposition Zposition Zrotation Xrotation Yrotation
      JOINT LeftLeg
      {
        OFFSET 0 -41.7092 0
        CHANNELS 6 Xposition Yposition Zposition Zrotation Xrotation Yrotation
        JOINT LeftFoot
        {
          OFFSET 0 -41.5308 0
          CHANNELS 6 Xposition Yposition Zposition Zrotation Xrotation Yrotation
          JOINT LeftToeBase
          {
            OFFSET 0 -6.23286 14.3835
            CHANNELS 6 Xposition Yposition Zposition Zrotation Xrotation Yrotation
            End Site
            {
              OFFSET 0 0 3.8356
            }
          }
        }
      }
    }
    JOINT RightUpLeg
    {
      OFFSET -9.58901 0 0
      CHANNELS 6 Xposition Yposition Zposition Zrotation Xrotation Yrotation
      JOINT RightLeg
      {
        OFFSET 0 -41.7092 0
        CHANNELS 6 Xposition Yposition Zposition Zrotation Xrotation Yrotation
        JOINT RightFoot
        {
          OFFSET 0 -41.5308 0
          CHANNELS 6 Xposition Yposition Zposition Zrotation Xrotation Yrotation
          JOINT RightToeBase
          {
            OFFSET 0 -6.23286 14.3835
            CHANNELS 6 Xposition Yposition Zposition Zrotation Xrotation Yrotation
            End Site
            {
              OFFSET 0 0 3.8356
            }
          }
        }
      }
    }
  }
}
MOTION
Frames:	6
Frame Time:	0.004
0 0 0 0 0 -0 -20.3011 86.2886 -199.187 0.229902 -0.874162 4.38416 -1.77636e-015 7.86299 0 0.867362 -7.29895 -0.265993 -1.77636e-015 22.6654 0 -0.727143 -0.083763 -0.319539 0 22.5723 2.05203 0.21267 17.4419 -2.25821 0 13.4246 -1.9178 2.14097 2.08163 -2.08509 3.7941 20.1358 -0.319195 10.8679 2.92642 1.19505 12.7665 0 -2.84217e-014 -9.6278 5.01918 -5.6081 28.396 0 0 0.0989789 3.56328 0.596082 28.7929 0 0 6.86876 3.4624 -1.66728 -3.85764 20.1358 -0.319195 -10.0367 3.83621 8.27197 -12.7665 0 0 7.62248 3.44424 -0.36173 -28.396 2.84217e-014 0 -0.721764 -0.347591 0.301481 -28.7929 2.84217e-014 -2.84217e-014 -0.157371 -0.349299 2.44484 9.58901 1.42109e-014 0 2.75302 4.70562 0.853609 -1.77636e-015 -41.7092 0 -3.22348 -0.281612 -2.56023 -1.77636e-015 -41.5308 -2.84217e-014 2.165 -5.02642 24.3122 0 -6.23286 14.3835 -2.98177e-016 0 -9.54166e-015 -9.58901 0 0 -4.29595 1.27458 3.19644 3.55271e-015 -41.7092 2.84217e-014 3.69734 4.09833 0.069826 -3.55271e-015 -41.5308 0 0.312614 -6.83052 -14.8743 7.10543e-015 -6.23286 14.3835 -9.93923e-017 0 -0 
0 0 0 0 0 -0 -20.3011 86.2886 -199.187 0.229665 -0.87418 4.36864 0 7.86299 0 0.867362 -7.29895 -0.265993 5.32907e-015 22.6654 0 -0.727091 -0.07454 -0.319539 0 22.5723 2.05203 0.203144 17.4419 -2.25821 -3.55271e-015 13.4246 -1.9178 2.1254 2.08427 -2.08509 3.7941 20.1358 -0.319195 10.8536 2.94019 1.19506 12.7665 0 0 -9.63199 4.9766 -5.60774 28.396 0 0 0.0989789 3.56328 0.596082 28.7929 0 -2.84217e-014 6.87759 3.4624 -1.66728 -3.85764 20.1358 -0.319195 -10.0367 3.83621 8.27197 -12.7665 2.84217e-014 0 7.62243 3.43661 -0.361727 -28.396 0 0 -0.721816 -0.337751 0.30148 -28.7929 0 0 -0.139449 -0.338825 2.42076 9.58901 -1.42109e-014 0 2.7514 4.7056 0.873459 0 -41.7092 0 -3.22281 -0.268194 -2.54449 1.77636e-015 -41.5308 0 2.14381 -5.04374 24.2991 -1.42109e-014 -6.23286 14.3835 -4.96962e-016 -3.97569e-016 -0 -9.58901 -1.42109e-014 -2.84217e-014 -4.2962 1.27457 3.20761 -3.55271e-015 -41.7092 0 3.69662 4.10781 0.079723 0 -41.5308 -2.84217e-014 0.312603 -6.83821 -14.8853 0 -6.23286 14.3835 1.49089e-016 0 -0 
0 0 0 0 0 -0 -20.3011 86.2886 -199.187 0.229692 -0.874178 4.37038 -1.77636e-015 7.86299 2.84217e-014 0.867362 -7.29895 -0.265993 0 22.6654 -2.84217e-014 -0.727089 -0.074207 -0.319539 0 22.5723 2.05203 0.196316 17.439 -2.25818 -1.77636e-015 13.4246 -1.9178 2.1304 2.09561 -2.0851 3.7941 20.1358 -0.319195 10.847 2.94693 1.19507 12.7665 2.84217e-014 2.84217e-014 -9.6335 4.96136 -5.60761 28.396 -2.84217e-014 0 0.0989789 3.56328 0.596082 28.7929 1.42109e-014 -2.84217e-014 6.89458 3.4624 -1.66728 -3.85764 20.1358 -0.319195 -10.037 3.83617 8.27606 -12.7665 -2.84217e-014 0 7.62228 3.41224 -0.361772 -28.396 -2.84217e-014 0 -0.7219 -0.321631 0.30148 -28.7929 2.84217e-014 -2.84217e-014 -0.156745 -0.323163 2.41598 9.58901 0 0 2.75266 4.70562 0.857992 0 -41.7092 0 -3.22287 -0.269259 -2.54721 1.77636e-015 -41.5308 0 2.15066 -5.03762 24.3101 0 -6.23286 14.3835 -9.93923e-017 -1.98785e-016 3.18055e-015 -9.58901 -2.84217e-014 0 -4.29606 1.27457 3.20171 -7.10543e-015 -41.7092 2.84217e-014 3.69532 4.11079 0.097879 3.55271e-015 -41.5308 0 0.293896 -6.84322 -14.9045 0 -6.23286 14.3835 1.49089e-016 7.95139e-016 -0 
0 0 0 0 0 -0 -20.3011 86.2886 -199.187 0.229639 -0.874182 4.36695 1.77636e-015 7.86299 0 0.867362 -7.29895 -0.265993 3.55271e-015 22.6654 -2.84217e-014 -0.727081 -0.0727352 -0.319539 -7.10543e-015 22.5723 2.05203 0.189163 17.4531 -2.25835 0 13.4246 -1.9178 2.12874 2.0674 -2.08532 3.7941 20.1358 -0.319195 10.8442 2.94552 1.19507 12.7665 0 0 -9.64021 4.94456 -5.60746 28.396 0 -2.84217e-014 0.0989789 3.56328 0.596082 28.7929 0 0 6.88983 3.4624 -1.66728 -3.85764 20.1358 -0.319195 -10.0372 3.83615 8.27909 -12.7665 2.84217e-014 0 7.62629 3.39478 -0.358081 -28.396 -2.84217e-014 0 -0.721937 -0.314193 0.30193 -28.7929 2.84217e-014 2.84217e-014 -0.128399 -0.3151 2.41227 9.58901 1.42109e-014 0 2.75264 4.70562 0.858322 0 -41.7092 0 -3.22288 -0.270025 -2.54294 -1.77636e-015 -41.5308 -2.84217e-014 2.13419 -5.05058 24.3253 1.42109e-014 -6.23286 14.3835 7.95139e-016 1.98785e-016 -0 -9.58901 0 -2.84217e-014 -4.29643 1.27455 3.21811 7.10543e-015 -41.7092 2.84217e-014 3.69641 4.11108 0.082621 -7.10543e-015 -41.5308 0 0.305838 -6.84528 -14.8938 0 -6.23286 14.3835 4.96962e-017 -3.97569e-016 3.18055e-015 
0 0 0 0 0 -0 -20.3005 86.2886 -199.187 0.229573 -0.874187 4.36257 0 7.86299 0 0.867362 -7.29895 -0.265993 -1.77636e-015 22.6654 0 -0.727071 -0.070891 -0.319631 -1.77636e-015 22.5723 2.05203 0.180417 17.448 -2.25829 -1.77636e-015 13.4246 -1.9178 2.12761 2.07448 -2.08572 3.7941 20.1358 -0.319195 10.8427 2.95167 1.19507 12.7665 0 -2.84217e-014 -9.64426 4.95056 -5.60752 28.396 2.84217e-014 2.84217e-014 0.0990349 3.55523 0.596529 28.7929 -2.84217e-014 -5.68434e-014 6.88219 3.45406 -1.66727 -3.85764 20.1358 -0.319195 -10.0374 3.83612 8.28205 -12.7665 -2.84217e-014 2.84217e-014 7.62979 3.38438 -0.353725 -28.396 0 -2.84217e-014 -0.722015 -0.298985 0.302411 -28.7929 0 0 -0.08584 -0.29883 2.40642 9.58901 -1.42109e-014 -2.84217e-014 2.75231 4.70561 0.862279 1.77636e-015 -41.7092 -2.84217e-014 -3.22248 -0.259795 -2.55443 -1.77636e-015 -41.5308 0 2.14825 -5.05614 24.3312 2.84217e-014 -6.23286 14.3835 4.96962e-016 7.95139e-016 -0 -9.58901 -2.84217e-014 -2.84217e-014 -4.29626 1.27456 3.21051 -3.55271e-015 -41.7092 2.84217e-014 3.69716 4.11137 0.0722427 -7.10543e-015 -41.5308 0 0.31956 -6.8472 -14.8775 0 -6.23286 14.3835 0 0 -1.59028e-015 
0 0 0 0 0 -0 -20.3018 86.2886 -199.187 0.22951 -0.874192 4.35844 -1.77636e-015 7.86299 2.84217e-014 0.867362 -7.29895 -0.265993 -5.32907e-015 22.6654 0 -0.727061 -0.0691372 -0.319721 0 22.5723 2.05203 0.183661 17.4599 -2.25843 0 13.4246 -1.9178 2.1256 2.0643 -2.0861 3.7941 20.1358 -0.319195 10.8444 2.95708 1.19508 12.7665 2.84217e-014 0 -9.64975 4.95484 -5.60755 28.396 -2.84217e-014 0 0.0983596 3.54402 0.609334 28.7929 -1.42109e-014 0 6.86958 3.4434 -1.66725 -3.85764 20.1358 -0.319195 -10.0376 3.83609 8.28475 -12.7665 0 -2.84217e-014 7.63175 3.37033 -0.349898 -28.396 -2.84217e-014 0 -0.721987 -0.303875 0.302829 -28.7929 0 0 -0.106107 -0.304121 2.38766 9.58901 0 0 2.75194 4.70561 0.866777 3.55271e-015 -41.7092 -2.84217e-014 -3.22256 -0.261609 -2.55368 -1.77636e-015 -41.5308 0 2.15516 -5.04201 24.3275 0 -6.23286 14.3835 -9.93923e-017 -1.98785e-016 6.36111e-015 -9.58901 0 0 -4.29619 1.27457 3.20738 -7.10543e-015 -41.7092 0 3.69632 4.11167 0.0838643 0 -41.5308 0 0.309501 -6.84842 -14.8741 0 -6.23286 14.3835 4.96962e-017 -3.97569e-016 1.59028e-015 
